<?xml version="1.0" encoding="UTF-8"?>
<svg xmlns="http://www.w3.org/2000/svg" version="1.1" xmlns:cc="http://creativecommons.org/ns#" xmlns:dc="http://purl.org/dc/elements/1.1/" xmlns:inkscape="http://www.inkscape.org/namespaces/inkscape" xmlns:rdf="http://www.w3.org/1999/02/22-rdf-syntax-ns#" xmlns:sodipodi="http://sodipodi.sourceforge.net/DTD/sodipodi-0.dtd" xmlns:svg="http://www.w3.org/2000/svg" xmlns:xlink="http://www.w3.org/1999/xlink" viewBox="0 0 697.08 144.1">
  <!-- Generator: Adobe Illustrator 30.2.1, SVG Export Plug-In . SVG Version: 2.1.1 Build 1)  -->
  <defs>
    <style>
      .st0 {
        fill: url(#Dégradé_sans_nom_17);
      }

      .st0, .st1, .st2, .st3, .st4, .st5, .st6 {
        stroke: #000;
        stroke-miterlimit: 13.2;
      }

      .st0, .st1, .st2, .st6 {
        stroke-width: .04px;
      }

      .st7 {
        clip-path: url(#clippath-6);
      }

      .st8 {
        clip-path: url(#clippath-7);
      }

      .st1 {
        fill: url(#Dégradé_sans_nom_16);
      }

      .st9 {
        clip-path: url(#clippath-4);
      }

      .st10 {
        fill: url(#Dégradé_sans_nom_11);
      }

      .st11 {
        fill: url(#Dégradé_sans_nom_7);
      }

      .st2 {
        fill: url(#Dégradé_sans_nom_18);
      }

      .st12 {
        fill: url(#Dégradé_sans_nom_6);
      }

      .st13 {
        clip-path: url(#clippath-9);
      }

      .st14 {
        clip-path: url(#clippath-10);
      }

      .st3 {
        fill: url(#Dégradé_sans_nom_12);
      }

      .st3, .st4, .st5 {
        stroke-width: .03px;
      }

      .st4 {
        fill: url(#Dégradé_sans_nom_14);
      }

      .st15 {
        fill: #fff;
      }

      .st16 {
        clip-path: url(#clippath-11);
      }

      .st17 {
        fill: none;
      }

      .st18 {
        clip-path: url(#clippath-1);
      }

      .st19 {
        clip-path: url(#clippath-5);
      }

      .st20 {
        clip-path: url(#clippath-8);
      }

      .st21 {
        clip-path: url(#clippath-3);
      }

      .st5 {
        fill: url(#Dégradé_sans_nom_13);
        fill-rule: evenodd;
      }

      .st22 {
        fill: url(#Dégradé_sans_nom_9);
      }

      .st23 {
        clip-path: url(#clippath-12);
      }

      .st6 {
        fill: url(#Dégradé_sans_nom_15);
      }

      .st24 {
        fill: url(#Dégradé_sans_nom_5);
      }

      .st25 {
        clip-path: url(#clippath-2);
      }

      .st26 {
        fill: #140f14;
      }

      .st27 {
        fill: url(#Dégradé_sans_nom_10);
      }

      .st28 {
        clip-path: url(#clippath);
      }

      .st29 {
        fill: url(#Dégradé_sans_nom_8);
      }
    </style>
    <clipPath id="clippath">
      <rect class="st17" x="-941.98" y="261.84" width="1.25" height="36.63"/>
    </clipPath>
    <linearGradient id="Dégradé_sans_nom_5" data-name="Dégradé sans nom 5" x1="-272.23" y1="1348.9" x2="-271.23" y2="1348.9" gradientTransform="translate(49858.18 -9936.49) rotate(-90) scale(37.38 -37.38)" gradientUnits="userSpaceOnUse">
      <stop offset="0" stop-color="#f6f7f7"/>
      <stop offset=".3" stop-color="#d1d8db"/>
      <stop offset=".3" stop-color="#d1d8db"/>
      <stop offset="1" stop-color="#f6f7f7"/>
    </linearGradient>
    <clipPath id="clippath-1">
      <rect class="st17" x="-903.16" y="197.46" width="49.37" height="49.37"/>
    </clipPath>
    <clipPath id="clippath-2">
      <rect class="st17" x="-941.95" y="279.86" width="1.18" height="1.18"/>
    </clipPath>
    <linearGradient id="Dégradé_sans_nom_6" data-name="Dégradé sans nom 6" x1="-216.88" y1="1355.61" x2="-215.88" y2="1355.61" gradientTransform="translate(-71527.74 11499.18) rotate(90) scale(52.12 -52.12)" gradientUnits="userSpaceOnUse">
      <stop offset="0" stop-color="#007544"/>
      <stop offset=".6" stop-color="#6acaab"/>
      <stop offset="1" stop-color="#009357"/>
    </linearGradient>
    <clipPath id="clippath-3">
      <path class="st17" d="M-899.31,198.33c-.96,0-1.58.81-1.73,1.94,0,0-1.23,6.48-1.23,20.23s1.23,22.77,1.23,22.77c.12,1.09.77,1.95,1.73,1.95h42.73c.95,0,1.72-.76,1.73-1.95,0,0-.48-10.54-.48-20.86s.48-22.15.48-22.15c.03-1.05-.78-1.94-1.73-1.94h-42.73Z"/>
    </clipPath>
    <clipPath id="clippath-4">
      <rect class="st17" x="-941.69" y="279.94" width="1" height="1.01"/>
    </clipPath>
    <linearGradient id="Dégradé_sans_nom_7" data-name="Dégradé sans nom 7" x1="-219.42" y1="1355.1" x2="-218.42" y2="1355.1" gradientTransform="translate(-80231.14 13034.25) rotate(90) scale(58.56 -58.56)" gradientUnits="userSpaceOnUse">
      <stop offset="0" stop-color="#009357"/>
      <stop offset=".3" stop-color="#6acaab"/>
      <stop offset=".55" stop-color="#009357"/>
      <stop offset=".84" stop-color="#007544"/>
      <stop offset="1" stop-color="#009d6a"/>
    </linearGradient>
    <clipPath id="clippath-5">
      <path class="st17" d="M-875.31,203.28c1.36.57,6.77,3.5,7.44,4.43-2.73.37-8.08,1.76-10.96,3.15l-.17.35c3.17-.69,7.61-1.07,10.67-1.23-1.15,1.67-1.9,2.48-3.64,4.37l-.16.36c3.32-1.99,4.25-2.13,7.3-3.92,1.16,1.7,1.43,5.64,1.48,8.74.99-1.97,2.2-9.42,1.7-10.76,2.02-1.39,2.3-2.51,2.3-2.51-1.86.16-2.88.19-3.88.52-2.38-1.47-7.82-3.38-11.91-3.85l-.16.35Z"/>
    </clipPath>
    <clipPath id="clippath-6">
      <rect class="st17" x="-941.28" y="280.12" width=".55" height=".65"/>
    </clipPath>
    <linearGradient id="Dégradé_sans_nom_8" data-name="Dégradé sans nom 8" x1="-271.81" y1="1344.67" x2="-270.81" y2="1344.67" gradientTransform="translate(50074.31 -10057.04) rotate(-90) scale(37.89 -37.89)" gradientUnits="userSpaceOnUse">
      <stop offset="0" stop-color="#00a876"/>
      <stop offset="1" stop-color="#009357"/>
    </linearGradient>
    <clipPath id="clippath-7">
      <path class="st17" d="M-895.53,226.41c-.27,2.48-.38,4.25-.02,6.23-1,.29-1.88.33-2.69.67l-.15.34c1.29.79,2.33,1.4,3.79,2.08.78,1.68,1.59,2.8,2.88,4.09l.16-.34c-.24-.96-.54-1.74-.42-2.78,1.61.47,3,.72,4.85.77l.15-.34c-1.63-.63-3.25-1.13-4.56-2.36.41-1.15.89-2.05,1.66-3.18l.16-.35c-1.39.22-2.66.72-3.86.96-.95-1.68-1.32-3.96-1.8-6.14l-.16.35Z"/>
    </clipPath>
    <clipPath id="clippath-8">
      <rect class="st17" x="-941.95" y="280.26" width=".45" height=".38"/>
    </clipPath>
    <linearGradient id="Dégradé_sans_nom_9" data-name="Dégradé sans nom 9" x1="-271.79" y1="1344.67" x2="-270.79" y2="1344.67" gradientTransform="translate(50070.76 -10060.58) rotate(-90) scale(37.9 -37.9)" gradientUnits="userSpaceOnUse">
      <stop offset="0" stop-color="#00a876"/>
      <stop offset="1" stop-color="#009357"/>
    </linearGradient>
    <clipPath id="clippath-9">
      <path class="st17" d="M-887.26,215.09s-1.05-.09-2.77-.04c-1.46.07-3.64.2-4.69.51l-.16.34c1.69.07,3.99.51,4.87,1.4,0,0-2.55,2.3-5.08,7.34,0,0,4.58-4.31,6.56-5.37,0,0,1.04,3.46,1.77,5.2l.16-.34c.2-1.12.69-4.14,1.55-5.99,0,0,.29-.19,1.76-.33,1.48-.12,3.56-.2,7.5.49l.16-.34c-.9-.52-4.49-2.06-8.3-2.58h.13c.53-1.53,1.17-2.68,1.17-2.68-.8.1-3.1,1.18-4.63,2.4Z"/>
    </clipPath>
    <clipPath id="clippath-10">
      <rect class="st17" x="-941.45" y="280.13" width=".39" height=".64"/>
    </clipPath>
    <linearGradient id="Dégradé_sans_nom_10" data-name="Dégradé sans nom 10" x1="-271.82" y1="1344.66" x2="-270.82" y2="1344.66" gradientTransform="translate(50033.56 -10052.68) rotate(-90) scale(37.87 -37.87)" gradientUnits="userSpaceOnUse">
      <stop offset="0" stop-color="#00a876"/>
      <stop offset="1" stop-color="#009357"/>
    </linearGradient>
    <clipPath id="clippath-11">
      <path class="st17" d="M-877.66,236.34c-.05-.68-.1-1.25-.14-2-.79,1.08-1.48,1.93-2.36,2.92-.95.26-2.03.25-3.01.23-.36,0-.72-.01-1.04,0l-.16.34c.9.47,1.79.75,2.74.95-.77.7-1.79,1.23-2.52,1.71l-.15.34c1.54-.37,3.57-1.02,5.08-1.92.79.03,1.53-.01,2.07-.11,0,0,.15-.36.15-.35-.09-.35-.4-.56-.49-1.05,1.42-1.1,2.44-2.11,3.62-3.29l.17-.34c-1.17.8-2.6,1.91-3.96,2.56Z"/>
    </clipPath>
    <clipPath id="clippath-12">
      <rect class="st17" x="-941.99" y="280.27" width=".23" height=".35"/>
    </clipPath>
    <linearGradient id="Dégradé_sans_nom_11" data-name="Dégradé sans nom 11" x1="-271.83" y1="1344.66" x2="-270.83" y2="1344.66" gradientTransform="translate(50026.39 -10050.27) rotate(-90) scale(37.86 -37.86)" gradientUnits="userSpaceOnUse">
      <stop offset="0" stop-color="#00a876"/>
      <stop offset="1" stop-color="#009357"/>
    </linearGradient>
    <linearGradient id="Dégradé_sans_nom_12" data-name="Dégradé sans nom 12" x1="-230.99" y1="1352.79" x2="-229.99" y2="1352.79" gradientTransform="translate(-180829.74 30894.08) rotate(90) scale(133.72 -133.72)" gradientUnits="userSpaceOnUse">
      <stop offset="0" stop-color="#007a50"/>
      <stop offset=".6" stop-color="#7fd2a4"/>
      <stop offset="1" stop-color="#00a770"/>
    </linearGradient>
    <linearGradient id="Dégradé_sans_nom_13" data-name="Dégradé sans nom 13" x1="-232.4" y1="1352.51" x2="-231.4" y2="1352.51" gradientTransform="translate(-214486.46 36839.3) rotate(90) scale(158.64 -158.64)" gradientUnits="userSpaceOnUse">
      <stop offset="0" stop-color="#00965e"/>
      <stop offset=".3" stop-color="#8ac9ad"/>
      <stop offset=".55" stop-color="#00965e"/>
      <stop offset=".84" stop-color="#007749"/>
      <stop offset="1" stop-color="#009f70"/>
    </linearGradient>
    <linearGradient id="Dégradé_sans_nom_14" data-name="Dégradé sans nom 14" x1="2257.37" y1="-11187.87" x2="2258.37" y2="-11187.87" gradientTransform="translate(-136.23 -1025.33) scale(.1 -.1)" gradientUnits="userSpaceOnUse">
      <stop offset="0" stop-color="#f1471d"/>
      <stop offset="1" stop-color="#fab10b"/>
    </linearGradient>
    <linearGradient id="Dégradé_sans_nom_15" data-name="Dégradé sans nom 15" x1="-251.11" y1="1348.79" x2="-250.11" y2="1348.79" gradientTransform="translate(146415.82 -27114.57) rotate(-90) scale(108.48 -108.48)" gradientUnits="userSpaceOnUse">
      <stop offset="0" stop-color="#33b880"/>
      <stop offset="1" stop-color="#00a770"/>
    </linearGradient>
    <linearGradient id="Dégradé_sans_nom_16" data-name="Dégradé sans nom 16" x1="-251.11" y1="1348.79" x2="-250.11" y2="1348.79" gradientTransform="translate(146385.7 -27121.17) rotate(-90) scale(108.51 -108.51)" gradientUnits="userSpaceOnUse">
      <stop offset="0" stop-color="#33b880"/>
      <stop offset="1" stop-color="#00a770"/>
    </linearGradient>
    <linearGradient id="Dégradé_sans_nom_17" data-name="Dégradé sans nom 17" x1="-251.11" y1="1348.79" x2="-250.11" y2="1348.79" gradientTransform="translate(146339.75 -27109.3) rotate(-90) scale(108.46 -108.46)" gradientUnits="userSpaceOnUse">
      <stop offset="0" stop-color="#33b880"/>
      <stop offset="1" stop-color="#00a770"/>
    </linearGradient>
    <linearGradient id="Dégradé_sans_nom_18" data-name="Dégradé sans nom 18" x1="-251.11" y1="1348.79" x2="-250.11" y2="1348.79" gradientTransform="translate(146361.87 -27110) rotate(-90) scale(108.46 -108.46)" gradientUnits="userSpaceOnUse">
      <stop offset="0" stop-color="#33b880"/>
      <stop offset="1" stop-color="#00a770"/>
    </linearGradient>
  </defs>
  <g id="svg2" inkscape:version="0.48.2 r9819">
    <g id="_x3C_defs">
      <inkscape:perspective id="perspective20" inkscape:persp3d-origin="96.377998 : 64.251999 : 1" inkscape:vp_x="0 : 96.377998 : 1" inkscape:vp_y="0 : 1000 : 0" inkscape:vp_z="192.756 : 96.377998 : 1" sodipodi:type="inkscape:persp3d"/>
    </g>
    <sodipodi:namedview id="base" bordercolor="#666666" borderopacity="1.0" fit-margin-bottom="5" fit-margin-left="5" fit-margin-right="5" fit-margin-top="5" inkscape:current-layer="g171142" inkscape:cx="-95.812761" inkscape:cy="17.60072" inkscape:document-units="px" inkscape:pageopacity="0.0" inkscape:pageshadow="2" inkscape:window-height="706" inkscape:window-maximized="1" inkscape:window-width="1366" inkscape:window-x="-8" inkscape:window-y="-8" inkscape:zoom="0.70710678" pagecolor="#ffffff" showgrid="false"/>
    <g id="layer1-8" inkscape:label="Calque 1">
      <g id="g8267" inkscape:label="bnppm-plan2011">
        <g id="g45075">
          <g id="g65180">
            <g id="g65000">
              <g id="g149185" inkscape:label="BNP">
                <g id="g149387">
                  <g id="g149389">
                    <g id="g149395">
                      <g id="g149397">
                        <g class="st28">
                          <g id="g149399">
                            <path id="path149415" class="st24" d="M-941.98,240.86H-197.88v-37.39h-744.09v37.39Z" inkscape:connector-curvature="0"/>
                          </g>
                        </g>
                      </g>
                    </g>
                  </g>
                </g>
                <g id="g149467">
                  <g class="st18">
                    <g id="g149469">
                      <g id="g149475">
                        <g id="g149477">
                          <g class="st25">
                            <g id="g149479">
                              <path id="path149493" class="st12" d="M-853.79,246.83h-49.37v-49.37h49.37v49.37Z" inkscape:connector-curvature="0"/>
                            </g>
                          </g>
                        </g>
                      </g>
                    </g>
                  </g>
                </g>
                <g id="g149495">
                  <g class="st21">
                    <g id="g149497">
                      <g id="g149503">
                        <g id="g149505">
                          <g class="st9">
                            <g id="g149507">
                              <path id="path149525" class="st11" d="M-899.31,198.33c-.96,0-1.58.81-1.73,1.94h0s-1.23,6.48-1.23,20.23h0c0,13.76,1.23,22.77,1.23,22.77h0c.12,1.09.77,1.95,1.73,1.95h42.73c.95,0,1.72-.76,1.73-1.95h0s-.48-10.55-.48-20.86h0c0-10.3.48-22.15.48-22.15h0c.03-1.05-.78-1.94-1.73-1.94h0s-42.73,0-42.73,0Z" inkscape:connector-curvature="0"/>
                            </g>
                          </g>
                        </g>
                      </g>
                    </g>
                  </g>
                </g>
                <g id="g149527">
                  <g class="st19">
                    <g id="g149529">
                      <g id="g149535">
                        <g id="g149537">
                          <g class="st7">
                            <g id="g149539">
                              <path id="path149551" class="st29" d="M-875.31,203.28c1.35.57,6.77,3.5,7.44,4.43h0c-2.73.37-8.08,1.76-10.95,3.15h0l-.17.35c3.17-.69,7.61-1.07,10.67-1.23h0c-1.15,1.67-1.9,2.48-3.64,4.37h0l-.16.36c3.32-1.99,4.25-2.13,7.3-3.92h0c1.15,1.7,1.43,5.64,1.48,8.74h0c.99-1.97,2.2-9.42,1.7-10.76h0c2.02-1.39,2.3-2.51,2.3-2.51h0c-1.86.16-2.88.19-3.88.52h0c-2.38-1.47-7.81-3.38-11.92-3.85h0l-.16.35h0Z" inkscape:connector-curvature="0"/>
                            </g>
                          </g>
                        </g>
                      </g>
                    </g>
                  </g>
                </g>
                <g id="g149553">
                  <g class="st8">
                    <g id="g149555">
                      <g id="g149561">
                        <g id="g149563">
                          <g class="st20">
                            <g id="g149565">
                              <path id="path149577" class="st22" d="M-895.53,226.41c-.27,2.48-.38,4.25-.02,6.23h0c-1,.29-1.88.33-2.69.67h0l-.15.34c1.29.79,2.33,1.4,3.79,2.08h0c.77,1.68,1.59,2.8,2.88,4.09h0l.16-.34c-.24-.95-.54-1.74-.42-2.78h0c1.61.47,3,.72,4.85.77h0l.15-.34c-1.63-.63-3.25-1.13-4.56-2.36h0c.41-1.15.89-2.05,1.66-3.18h0l.16-.35c-1.39.22-2.66.72-3.86.96h0c-.95-1.68-1.32-3.96-1.81-6.14h0s-.16.35-.16.35Z" inkscape:connector-curvature="0"/>
                            </g>
                          </g>
                        </g>
                      </g>
                    </g>
                  </g>
                </g>
                <g id="g149579">
                  <g class="st13">
                    <g id="g149581">
                      <g id="g149587">
                        <g id="g149589">
                          <g class="st14">
                            <g id="g149591">
                              <path id="path149603" class="st27" d="M-887.26,215.09s-1.05-.1-2.77-.04h0c-1.46.07-3.64.2-4.69.51h0l-.16.34c1.69.07,3.99.51,4.87,1.4h0s-2.55,2.3-5.08,7.34h0s4.58-4.3,6.56-5.37h0s1.04,3.46,1.77,5.2h0l.16-.34c.2-1.12.69-4.14,1.55-5.99h0s.29-.18,1.76-.33h0c1.48-.12,3.56-.2,7.5.49h0l.16-.34c-.9-.52-4.5-2.06-8.3-2.58h.13c.53-1.53,1.17-2.68,1.17-2.68h0c-.8.1-3.1,1.18-4.63,2.4" inkscape:connector-curvature="0"/>
                            </g>
                          </g>
                        </g>
                      </g>
                    </g>
                  </g>
                </g>
                <g id="g149605">
                  <g class="st16">
                    <g id="g149607">
                      <g id="g149613">
                        <g id="g149615">
                          <g class="st23">
                            <g id="g149617">
                              <path id="path149629" class="st10" d="M-877.66,236.35c-.05-.68-.1-1.25-.14-2h0c-.8,1.08-1.48,1.93-2.36,2.92h0c-.95.26-2.03.25-3.01.23h0c-.36,0-.72-.01-1.04,0h0l-.16.34c.9.47,1.79.75,2.74.95h0c-.77.69-1.79,1.23-2.52,1.71h0l-.15.34c1.54-.37,3.57-1.02,5.08-1.92h0c.79.03,1.53,0,2.07-.11h0s.15-.36.15-.35h0c-.09-.35-.4-.56-.49-1.05h0c1.42-1.1,2.44-2.11,3.63-3.29h0l.17-.34c-1.17.8-2.6,1.91-3.96,2.56" inkscape:connector-curvature="0"/>
                            </g>
                          </g>
                        </g>
                      </g>
                    </g>
                  </g>
                </g>
                <g id="g149631">
                  <g id="g149633">
                    <g id="g171142">
                      <g id="g171284">
                        <g id="g171249">
                          <g id="g64729">
                            <path id="path44671" class="st3" d="M5.13,5.21h133.72v133.73H5.13V5.21h0Z" inkscape:connector-curvature="0"/>
                            <path id="path44697" class="st5" d="M15.56,7.06c-2.59,0-4.28,2.2-4.68,5.26h0s-3.34,17.56-3.34,54.83h0c0,37.29,3.34,61.69,3.34,61.69h0c.3,2.95,2.09,5.26,4.68,5.26h115.74c2.59,0,4.65-2.05,4.69-5.26h0s-1.28-28.58-1.28-56.49h0c0-27.92,1.28-60.03,1.28-60.03h0c.06-2.85-2.1-5.26-4.69-5.26H15.56Z" inkscape:connector-curvature="0"/>
                            <path id="path44717" class="st4" d="M80.71,49.82s.06.02.09.03h0s-.06-.02-.09-.03Z" inkscape:connector-curvature="0"/>
                            <path id="path45013" class="st6" d="M81.92,18.99c3.87,1.62,19.37,10,21.27,12.68h0c-7.81,1.03-23.11,5.02-31.34,9.02h0l-.48.98c9.08-2.01,21.79-3.05,30.55-3.53h0c-3.26,4.8-5.43,7.08-10.41,12.52h0l-.46,1.05c9.48-5.7,12.16-6.11,20.89-11.22h0c3.3,4.88,4.1,16.13,4.23,25.05h0c2.84-5.65,6.3-26.97,4.86-30.82h0c5.79-3.97,6.58-7.18,6.58-7.18h0c-5.31.46-8.24.55-11.11,1.45h0c-6.79-4.17-22.37-9.66-34.12-10.98h0l-.45.99h0Z" inkscape:connector-curvature="0"/>
                            <path id="path45033" class="st1" d="M24.04,85.2c-.77,7.11-1.08,12.19-.06,17.86h0c-2.88.8-5.39.91-7.71,1.9h0l-.44.97c3.69,2.27,6.69,4.01,10.85,5.97h0c2.23,4.79,4.54,8.02,8.27,11.7h0l.45-.98c-.67-2.73-1.54-4.97-1.21-7.95h0c4.63,1.36,8.61,2.07,13.88,2.23h0l.45-.99c-4.64-1.81-9.28-3.22-13.04-6.76h0c1.18-3.29,2.53-5.86,4.74-9.11h0l.47-1.01c-3.99.6-7.6,2.06-11.05,2.74h0c-2.73-4.77-3.77-11.32-5.15-17.54h0l-.46.99h0Z" inkscape:connector-curvature="0"/>
                            <path id="path45053" class="st0" d="M47.71,52.81s-2.99-.28-7.92-.13h0c-4.18.19-10.4.57-13.43,1.45h0l-.44.98c4.8.21,11.4,1.5,13.92,4.03h0s-7.01,6.35-14.06,20.03h0c-.18.35-.3.62-.48.99h0s13.13-12.32,18.82-15.38h0s2.97,9.92,5.04,14.89h0l.45-.99c.57-3.19,1.99-11.84,4.42-17.14h0s.86-.52,5.05-.92h0c4.22-.38,10.17-.6,21.46,1.38h0l.46-.98c-2.56-1.5-12.65-5.83-23.41-7.35h0c1.49-4.39,3.38-7.75,3.38-7.75h0c-2.31.32-8.87,3.4-13.26,6.89" inkscape:connector-curvature="0"/>
                            <path id="path45073" class="st2" d="M75.2,113.66c-.16-1.93-.29-3.57-.39-5.74h0c-2.28,3.1-4.23,5.54-6.74,8.37h0c-2.66.73-5.69.7-8.46.68h0c-1.11-.01-2.18-.02-3.16.01h0l-.44.99c2.59,1.33,5.12,2.14,7.82,2.7h0c-2.2,1.99-5.12,3.52-7.18,4.9h0l-.46.98c4.43-1.04,10.23-2.92,14.56-5.47h0c2.25.1,4.36-.05,5.9-.36h0s.47-1.01.47-.99h0c-.29-1-1.17-1.61-1.43-3h0c4.06-3.15,6.99-6.02,10.39-9.43h0l.48-.98c-3.36,2.31-7.43,5.48-11.34,7.35" inkscape:connector-curvature="0"/>
                          </g>
                          <g id="g45083">
                            <path id="path45085" class="st15" d="M112.38,39.49c-8.72,5.13-11.38,5.57-20.87,11.24,5.52-5.99,7.44-8.54,10.86-13.55-8.75.46-21.45,1.51-30.52,3.52,7.89-4.22,23.55-8.91,31.81-10.03-1.91-2.64-17.43-11.04-21.28-12.66,12.28.96,27.29,5.54,34.57,10,2.86-.9,5.84-.94,11.17-1.41-1.35,2.33-1.42,3.67-6.65,7.14,1.45,3.88-2.01,25.17-4.86,30.82-.11-8.91-.88-20.16-4.22-25.06" inkscape:connector-curvature="0"/>
                          </g>
                          <g id="g45087">
                            <path id="path45089" class="st15" d="M48.52,115.9c-5.01-1.86-8.62-4.02-12.6-7.74,1.19-3.28,2.55-5.84,4.77-9.14-4.08.61-7.08,1.07-10.59,1.74-2.86-5-4.15-9.83-5.61-16.55-.77,7.12-1.07,12.2-.07,17.87-3.22.89-5.49,1.68-8.15,2.87,3.71,2.27,6.72,4.02,10.86,5.95,2.23,4.78,4.53,8.02,8.28,11.7-.88-3.14-1.1-5.64-.74-8.93,4.63,1.35,8.6,2.06,13.86,2.22" inkscape:connector-curvature="0"/>
                          </g>
                          <g id="g45091">
                            <path id="path45093" class="st15" d="M61.57,45.06h0c-1.56,2.03-3.37,5.81-3.86,7.56,12.92,1.75,23.28,8.39,23.28,8.39-11.29-2-17.25-1.75-21.46-1.38-4.19.4-5.05.89-5.05.89-3.04,6.67-4.87,18.14-4.87,18.14-2.06-4.95-5.03-14.88-5.03-14.88-5.7,3.05-18.81,15.38-18.81,15.38,7.2-14.43,14.52-21,14.52-21-2.52-2.55-9.12-3.82-13.95-4.04,2.51-1.02,8.93-2.21,13.88-2.44,4.94-.14,7.94.14,7.94.14,4.41-3.48,11.1-6.42,13.41-6.76" inkscape:connector-curvature="0"/>
                          </g>
                          <g id="g45095">
                            <path id="path45097" class="st15" d="M75.28,106.96c-2.28,3.09-4.24,5.53-6.77,8.35-4.34,1.22-7.81,1.68-12.05,1.68,2.6,1.34,5.13,2.14,7.84,2.71-2.71,2.45-5.01,4.21-7.64,5.87,4.42-1.03,10.22-2.91,14.54-5.47,2.26.09,4.37-.06,5.92-.37-.4-1.31-.66-2.28-.98-3.99,4.06-3.15,7.03-6.01,10.41-9.43-3.6,2.51-6.71,4.39-10.89,6.36-.18-1.91-.28-3.55-.38-5.71" inkscape:connector-curvature="0"/>
                          </g>
                        </g>
                        <g id="g171049">
                          <g id="g149761">
                            <path id="path149763" class="st26" d="M201.49,54.33c9.26.08,12.66,1.96,12.66,7.01,0,1.39-.43,2.63-1.24,3.57-1.78,2.13-5.23,3.24-9.65,2.96h-.22l-2.59,6.74h2.59c5.11-.15,9.56,1.47,11.84,4.26,1.06,1.27,1.59,2.8,1.59,4.36,0,5.27-4.65,8-13.81,8-1.54,0-4.05,0-5.62-.05-.26-7.04-.38-16.57-.38-19.44,0-3.32.22-10.73.38-17.06,1.06-.21,2.81-.36,4.45-.36M184.32,49.48c.29,5,.58,17.65.58,22.26,0,4.24,0,18.47-.75,24.61l-.05.48h22.23c10.92,0,22.47-3.4,22.47-13.1,0-6.07-4.4-10.56-12.62-13.02,6.1-1.64,10.17-5.81,10.17-10.58,0-7.92-9.1-10.9-17.65-11.11h-24.51s.13.45.13.45Z" inkscape:connector-curvature="0"/>
                          </g>
                          <g id="g149765">
                            <path id="path149767" class="st26" d="M280.11,49.03h-10.82l.44,12.06c.21,5.96.41,12.09.83,18.03-.7-1.86-1.35-2.82-4.64-7.61-.01-.17-11.25-17.46-15.16-22.37l-.11-.11h-12.55v.45c.4,5,.56,17.65.56,22.26,0,4.25,0,18.47-.6,24.61l-.11.48h11.19v-.48c-.64-11.66-.64-23.44-.64-34.86.39,1.39.89,2.57,2.64,5.18.14.31,19.41,28.35,20.34,29.96l.1.2h8.96v-.48c-.7-6.14-.76-20.36-.76-24.61,0-4.61.31-17.26.6-22.26l.14-.45h-.44Z" inkscape:connector-curvature="0"/>
                          </g>
                          <g id="g149769">
                            <path id="path149771" class="st26" d="M309.45,54.8c6.23-.11,10.59,1.15,12.65,3.76.95,1.13,1.48,2.61,1.48,4.31,0,6.92-7.79,8.42-14.29,8.42l-2.64-.15s-.62-.06-1.09-.11c-.05-1.6-.05-3.7-.05-6.07,0-3.01,0-6.58.14-9.89.92-.12,2.3-.28,3.8-.28M293.04,49.48c.44,5,.6,17.65.6,22.26,0,4.25,0,18.47-.66,24.61v.49h13.31l-.06-.49c-.45-4.41-.69-12.83-.73-19.26.63.04,2.51.13,2.51.13l1.88.04c17.5,0,26.01-4.63,26.01-14.38,0-11.09-11.94-13.63-21.9-13.84h-20.97s0,.45,0,.45Z" inkscape:connector-curvature="0"/>
                          </g>
                          <g id="g149773">
                            <path id="path149775" class="st26" d="M377.69,54.8c6.25-.11,10.59,1.15,12.69,3.76.96,1.13,1.44,2.61,1.44,4.31,0,6.92-7.78,8.42-14.19,8.42l-2.63-.15s-.7-.06-1.11-.11c-.07-1.6-.07-3.72-.07-6.07,0-3.04,0-6.58.12-9.89.83-.12,2.28-.28,3.76-.28M361.31,49.48c.42,5,.66,17.65.66,22.26,0,4.25-.04,18.47-.73,24.61v.49h13.32l-.08-.49c-.42-4.41-.66-12.83-.66-19.26.62.04,2.4.13,2.4.13l1.93.04c17.49,0,26.08-4.63,26.08-14.38,0-11.09-12.01-13.63-22-13.84h-20.91s0,.45,0,.45Z" inkscape:connector-curvature="0"/>
                          </g>
                          <g id="g149777">
                            <path id="path149779" class="st26" d="M425.25,63.11c1.06,2.28,3.8,8.63,6.9,16.22-.48.02-1.08.02-1.08.02l-5.82.08s-6.03-.08-7.03-.1c2.51-6.06,5-11.54,7.03-16.22M422.01,49.03h-.17l-.09.24c-2.48,6.8-18.43,41.63-20.96,46.96l-.21.6h11.33l.09-.26c1-3.28,2.34-6.98,3.8-10.93.45,0,9.45-.13,9.45-.13l7.83.06s1.26.08,1.64.08c2.02,5.14,3.56,9.01,4.24,10.98l.13.2h13.13l-21.22-47.81h-.26s-8.72,0-8.72,0Z" inkscape:connector-curvature="0"/>
                          </g>
                          <g id="g149781">
                            <path id="path149783" class="st26" d="M457.55,49.48c.38,5,.57,17.65.57,22.26,0,4.25,0,18.47-.73,24.61v.48h13.38l-.06-.48c-.71-6.18-.76-20.36-.76-24.61,0-3.32.1-10.73.43-16.71,1.02-.07,2.57-.23,3.62-.23,6.19-.12,10.56,1.16,12.61,3.77.98,1.12,1.42,2.64,1.42,4.31,0,5.52-5.15,8.32-9.96,8.57-1.61.07-2.8-.14-2.8-.14l-.94-.16.51.88c4.75,6.93,11.86,18.94,14.79,24.61l.09.2h14.3l-.36-.65c-.58-.8-9.9-14.51-13.85-20.37,0,0-.18-.17-.35-.36,7.33-2.2,10.87-6.3,10.87-12.59,0-11.01-11.94-13.63-22.02-13.84h-20.84l.04.45Z" inkscape:connector-curvature="0"/>
                          </g>
                          <g id="g149785">
                            <path id="path149787" class="st26" d="M522.98,49.03h-12.74l.07.45c.33,5,.59,17.65.59,22.26,0,4.23-.06,18.43-.66,24.61l-.05.48h13.21l-.07-.48c-.51-6.18-.67-20.38-.67-24.61,0-4.61.32-17.26.67-22.26v-.45s-.35,0-.35,0Z" inkscape:connector-curvature="0"/>
                          </g>
                          <g id="g149789">
                            <path id="path149791" class="st26" d="M552.6,54.33h0c9.34.08,12.73,1.96,12.73,7.01,0,1.39-.43,2.63-1.28,3.57-1.68,2.13-5.28,3.24-9.65,2.96h-.21l-2.57,6.74h2.57c5.13-.15,9.54,1.47,11.82,4.26,1.11,1.27,1.64,2.8,1.64,4.36,0,5.27-4.67,8-13.88,8-1.48,0-3.97,0-5.53-.05-.38-7.04-.38-16.57-.38-19.44,0-3.32.12-10.73.38-17.06,1.01-.21,2.76-.36,4.36-.36M535.44,49.48c.38,5,.62,17.65.62,22.26,0,4.24,0,18.47-.68,24.61l-.11.48h22.26c10.89,0,22.47-3.4,22.47-13.1,0-6.07-4.41-10.56-12.7-13.02,6.11-1.64,10.23-5.81,10.23-10.58,0-7.92-9.11-10.9-17.59-11.11h-24.56s.06.45.06.45Z" inkscape:connector-curvature="0"/>
                          </g>
                          <g id="g149793">
                            <path id="path149795" class="st26" d="M607.25,63.09c1.08,2.23,3.8,8.59,6.89,16.19-.47,0-1.05.05-1.05.05l-5.84.08s-6.09-.13-7-.13c2.48-6.1,4.91-11.54,7-16.19M612.75,49.03h-8.95l-.06.21c-2.67,7.24-19.53,43.9-20.95,46.94l-.25.64h11.39l.07-.28c.95-3.27,2.28-6.95,3.76-10.98.36,0,9.42-.14,9.42-.14l7.84.13s1.36.02,1.66.02c2.06,5.14,3.59,9.04,4.26,10.98l.12.28h13.18l-21.2-47.8s-.29,0-.29,0Z" inkscape:connector-curvature="0"/>
                          </g>
                          <g id="g149797">
                            <path id="path149799" class="st26" d="M637.97,61.4c0,8.4,8.41,11.78,15.86,14.86,5.79,2.31,11.86,4.74,11.86,8.75,0,1.21-.24,2.23-.92,2.95-1.4,1.64-4.22,2.33-8.7,2.09-4.44-.18-9.45-1.58-15.08-4.17l-2.2-1.06v10.42l1.51.38.87.15c2.78.69,8.15,1.95,13.48,1.95,14.03,0,22.41-5.59,22.41-14.85,0-8.69-8.65-12.08-16.29-15.12-5.64-2.28-11.46-4.54-11.46-8.27,0-1.07,0-4.21,7.27-4.21,5.36,0,10.57,2.18,13.53,3.31l2.7,1.13-.02-1.79v-8.66l-2.68-.49c-2.73-.55-7.28-1.45-11.96-1.45-12.11,0-20.19,5.72-20.19,14.09" inkscape:connector-curvature="0"/>
                          </g>
                        </g>
                      </g>
                    </g>
                  </g>
                </g>
              </g>
            </g>
          </g>
        </g>
      </g>
    </g>
  </g>
</svg>