<?xml version="1.0" encoding="UTF-8"?>
<svg id="Calque_1" xmlns="http://www.w3.org/2000/svg" version="1.1" viewBox="0 0 588.9 526.58">
  <!-- Generator: Adobe Illustrator 30.2.1, SVG Export Plug-In . SVG Version: 2.1.1 Build 1)  -->
  <defs>
    <style>
      .st0 {
        fill: #fff;
      }

      .st1 {
        fill: #ffff31;
      }
    </style>
  </defs>
  <g>
    <path class="st0" d="M20.03,465.91h15.48c10.02,0,15.27,2.43,15.27,9.99,0,4.18-2.29,7.03-6.29,8.14,4.47.79,7.64,3.33,7.64,8.3,0,7.67-4.83,10.58-16.36,10.58h-15.74v-37.02ZM35.56,480.77c4.31,0,6.44-.95,6.44-3.91,0-3.38-2.29-3.65-6.8-3.65h-6.91v7.56h7.27ZM35.56,495.63c5.66,0,7.38-1.06,7.38-3.86,0-3.01-1.66-4.02-7.38-4.02h-7.27v7.88h7.27Z"/>
    <polygon class="st0" points="76.18 465.91 84.75 465.91 105.32 491.29 105.32 465.91 113.43 465.91 113.43 502.93 104.86 502.93 84.24 477.86 84.24 502.93 76.18 502.93 76.18 465.91"/>
    <path class="st0" d="M140.19,465.91h14.28c11.01,0,16.73,2.8,16.73,12.37s-5.77,13.17-16.21,13.17c-1.82,0-4.26-.05-6.55-.26v11.74h-8.26v-37.02ZM162.78,478.76c0-4.6-2.55-5.55-8.36-5.55h-5.97v10.68c2.18.21,4.36.26,6.08.26,5.82,0,8.26-1.06,8.26-5.39"/>
    <path class="st0" d="M228.04,465.91h14.28c11.01,0,16.73,2.8,16.73,12.37s-5.77,13.17-16.21,13.17c-1.82,0-4.26-.05-6.55-.26v11.74h-8.26v-37.02ZM250.63,478.76c0-4.6-2.55-5.55-8.36-5.55h-5.97v10.68c2.18.21,4.36.26,6.08.26,5.82,0,8.26-1.06,8.26-5.39"/>
    <path class="st0" d="M291,465.91h9.71l15.37,37.02h-8.98l-2.86-6.82h-17.77l-2.7,6.82h-8.1l15.32-37.02ZM301.39,489.07l-6.18-15.97-5.92,15.97h12.1Z"/>
    <path class="st0" d="M337.39,465.91h14.49c10.08,0,16.73,2.27,16.73,11.42,0,6.5-3.01,9.25-7.06,10.73l9.04,14.86h-9.45l-7.9-12.9c-.67.05-1.56.05-2.28.05-1.87,0-3.9-.11-5.3-.21v13.06h-8.26v-37.02ZM359.99,477.76c0-3.44-2.7-4.55-8.21-4.55h-6.13v9.2c1.77.1,3.74.21,6.03.21,5.71,0,8.31-1.32,8.31-4.87"/>
    <rect class="st0" x="393.66" y="465.91" width="8.26" height="37.02"/>
    <path class="st0" d="M428.68,465.91h15.48c10.02,0,15.27,2.43,15.27,9.99,0,4.18-2.29,7.03-6.29,8.14,4.47.79,7.64,3.33,7.64,8.3,0,7.67-4.83,10.58-16.36,10.58h-15.74v-37.02ZM444.21,480.77c4.31,0,6.44-.95,6.44-3.91,0-3.38-2.29-3.65-6.8-3.65h-6.91v7.56h7.27ZM444.21,495.63c5.66,0,7.38-1.06,7.38-3.86,0-3.01-1.66-4.02-7.38-4.02h-7.27v7.88h7.27Z"/>
    <path class="st0" d="M495.22,465.91h9.71l15.37,37.02h-8.98l-2.86-6.82h-17.77l-2.7,6.82h-8.1l15.32-37.02ZM505.61,489.07l-6.18-15.97-5.92,15.97h12.1Z"/>
    <path class="st0" d="M538.19,499.07l2.96-6.98c3.43,2.43,7.69,3.97,13.14,3.97,4.42,0,7.17-1.11,7.17-3.39,0-6.5-22.7-1.8-22.7-16.13,0-7.19,6.08-11.37,15.53-11.37,11.53,0,14.86,5.76,15.38,11.79l-8.1.85c-.31-2.8-1.92-5.02-7.43-5.02-4.47,0-6.7,1.16-6.7,3.44,0,6.56,22.65,2.17,22.65,15.97,0,7.09-5.71,11.48-16.15,11.48-7.12,0-12.47-2.22-15.74-4.6"/>
    <path class="st0" d="M558.48,63.7c-9.28-.99-40.3,1.01-66.66,8.43-43.43-26.55-133.02-53.95-206.33-59.65,23.03,9.66,115.61,59.8,127.06,75.6-49.32,6.65-142.79,34.66-189.92,59.83,54.14-11.99,129.99-18.27,182.17-21.03,0,0-25.29,41.22-64.83,80.9,58.51-28.36,72.57-36.44,124.62-67.06,19.89,29.21,24.54,96.38,25.16,149.56,17.06-33.68,37.71-160.82,29.06-183.93,23.95-17.72,34.6-30.69,39.65-42.65"/>
  </g>
  <g>
    <polygon class="st1" points="116.62 73.45 119.21 67.13 95.59 67.43 93.2 73.15 116.62 73.45"/>
    <polygon class="st1" points="123.49 59.07 123.65 65.68 147.01 65.98 146.81 58.78 123.49 59.07"/>
    <polygon class="st1" points="147.22 73.84 147.03 66.78 123.69 67.07 123.85 73.54 147.22 73.84"/>
    <polygon class="st1" points="112.4 27.2 109.52 34.08 146.15 34.55 145.94 26.77 112.4 27.2"/>
    <polygon class="st1" points="170.97 13.53 158.66 50.42 166.76 50.52 158.59 50.62 156.04 58.24 172.63 58.45 155.9 58.66 153.43 66.06 178.49 66.38 153.22 66.7 150.82 73.88 177.66 74.22 199.92 13.53 170.97 13.53"/>
    <polygon class="st1" points="147.25 74.78 123.89 75.08 124.05 81.4 147.44 81.7 147.25 74.78"/>
    <polygon class="st1" points="109.04 35.24 106.26 41.9 146.37 42.4 146.16 34.77 109.04 35.24"/>
    <polygon class="st1" points="150.53 74.74 148.21 81.71 174.79 82.04 177.59 74.39 150.53 74.74"/>
    <polygon class="st1" points="113.41 81.26 115.91 75.18 92.22 75.48 89.93 80.97 113.41 81.26"/>
    <polygon class="st1" points="160.45 121.14 162.85 114.61 124.91 115.09 125.05 120.69 160.45 121.14"/>
    <polygon class="st1" points="124.7 107.09 124.85 112.83 163.32 113.32 165.8 106.56 124.7 107.09"/>
    <polygon class="st1" points="124.5 99.08 124.65 104.97 166.19 105.5 168.75 98.52 124.5 99.08"/>
    <polygon class="st1" points="61.62 123.9 61.56 126.66 94.78 126.66 96.1 123.46 61.62 123.9"/>
    <polygon class="st1" points="124.3 91.08 124.45 97.12 169.05 97.68 171.69 90.48 124.3 91.08"/>
    <polygon class="st1" points="105.68 43.29 102.99 49.71 146.58 50.26 146.38 42.77 105.68 43.29"/>
    <polygon class="st1" points="123.03 57.82 123.43 56.84 123.45 57.82 146.8 58.12 146.59 50.77 102.31 51.34 99.73 57.52 123.03 57.82"/>
    <polygon class="st1" points="147.85 82.78 147.5 83.83 147.47 82.78 124.1 83.08 124.25 89.26 171.92 89.86 174.64 82.44 147.85 82.78"/>
    <polygon class="st1" points="119.82 65.63 122.51 59.09 98.95 59.38 96.46 65.34 119.82 65.63"/>
    <polygon class="st1" points="107 96.89 109.3 91.27 62.33 91.87 62.23 96.32 107 96.89"/>
    <polygon class="st1" points="103.79 104.71 106 99.32 62.16 99.88 62.06 104.18 103.79 104.71"/>
    <polygon class="st1" points="100.58 112.52 102.7 107.37 61.98 107.88 61.89 112.03 100.58 112.52"/>
    <polygon class="st1" points="110.2 89.08 112.6 83.23 88.86 83.53 88.73 83.83 88.75 83.53 62.51 83.86 62.41 88.47 110.2 89.08"/>
    <polygon class="st1" points="88.89 80.95 89.18 75.52 62.69 75.85 62.58 80.62 88.89 80.95"/>
    <path class="st1" d="M190,82.24h.23s-.23,0-.23,0l-1.51,7.83,7.61.1-7.65.1-1.48,7.64,15,.19-15.07.19-1.44,7.45,22.38.28-22.49.29-1.4,7.27,29.76.38-29.9.38-1.37,7.08,37.14.47-37.32.47-.83,4.3h36.67c8.92-4.56,18.75-9.14,29.14-13.47l2.56-13.2h-36.18l3.4-17.29h32.34l4.73-24.24h-32.34l3.54-18.26h34.11l5.17-26.67h-61.28l-13.27,68.71Z"/>
    <polygon class="st1" points="158.42 126.66 159.9 122.65 125.11 123.09 125.2 126.66 158.42 126.66"/>
    <polygon class="st1" points="97.38 120.34 99.4 115.41 61.8 115.89 61.71 119.89 97.38 120.34"/>
    <polygon class="st1" points="91.46 33.85 91.81 27.46 63.76 27.81 63.63 33.5 91.46 33.85"/>
    <polygon class="st1" points="91.03 41.7 91.37 35.47 63.58 35.82 63.45 41.35 91.03 41.7"/>
    <polygon class="st1" points="91.89 26 92.25 19.45 63.93 19.81 63.8 25.64 91.89 26"/>
    <polygon class="st1" points="118.11 13.53 116.06 18.45 143.29 18.8 115.77 19.15 112.79 26.27 145.94 26.69 145.58 13.53 118.11 13.53"/>
    <polygon class="st1" points="92.32 18.15 92.57 13.53 64.07 13.53 63.98 17.79 92.32 18.15"/>
    <polygon class="st1" points="90.17 57.4 90.5 51.49 63.22 51.83 63.11 57.06 90.17 57.4"/>
    <polygon class="st1" points="90.6 49.55 90.93 43.48 63.4 43.83 63.28 49.2 90.6 49.55"/>
    <polygon class="st1" points="89.75 65.25 90.06 59.5 63.04 59.84 62.93 64.91 89.75 65.25"/>
    <polygon class="st1" points="89.32 73.1 89.62 67.51 62.87 67.85 62.76 72.76 89.32 73.1"/>
  </g>
  <g>
    <polygon class="st1" points="272.61 360.31 272.64 360.2 272.58 360.2 272.61 360.31"/>
    <polygon class="st1" points="24.68 319.08 49.62 319.27 49.65 319.08 24.68 319.08"/>
    <polygon class="st1" points="19.94 319.08 24.68 319.08 19.95 319.05 19.94 319.08"/>
    <polygon class="st1" points="247.47 383.58 300 383.97 301.21 377.7 245.77 378.11 247.47 383.58"/>
    <polygon class="st1" points="249.93 391.45 298.47 391.81 299.66 385.71 248.26 386.09 249.93 391.45"/>
    <polygon class="st1" points="70.48 379.4 37.89 379.65 37.43 382.02 69.92 382.26 70.48 379.4"/>
    <polygon class="st1" points="252.38 399.32 296.94 399.65 298.1 393.73 250.75 394.08 252.38 399.32"/>
    <polygon class="st1" points="62.38 421.09 62.7 419.48 30.11 419.73 29.84 421.09 62.38 421.09"/>
    <polygon class="st1" points="376.06 421.09 409.67 421.09 410.48 416.91 374.84 417.18 376.06 421.09"/>
    <path class="st1" d="M508.9,290.6c-6.97,12.71-14.71,25.41-20.59,34.74-.16,1.69-.24,3.41-.24,5.17,0,35.61,46.94,37.55,46.94,52.84-4.16,16.88-38.32,9.43-52.23-6.79l-8.93,32.87c32.27,27.89,93.97,16.51,95.65-29.76,0-36.39-48.01-35.81-48.01-53.43,0-7.94,5.49-12,12.38-12,7.44,0,9.45,4.16,9.83,11.83h31.27c5.03-41.03-38.21-53.03-66.07-35.48Z"/>
    <polygon class="st1" points="307.97 421.09 339.63 421.09 340.34 417.43 308.64 417.67 307.97 421.09"/>
    <polygon class="st1" points="68.92 387.42 36.33 387.66 35.91 389.87 68.4 390.11 68.92 387.42"/>
    <polygon class="st1" points="203.2 285.6 129.8 285.6 129.25 288.44 202.54 288.98 203.2 285.6"/>
    <polygon class="st1" points="251.04 285.6 217.26 285.6 216.59 289.08 252.12 289.34 251.04 285.6"/>
    <polygon class="st1" points="118.45 285.6 26.48 285.6 26.08 287.67 117.91 288.35 118.45 285.6"/>
    <polygon class="st1" points="266.15 337.93 207.06 338.37 205.98 343.99 268.03 344.45 266.15 337.93"/>
    <polygon class="st1" points="65.81 403.45 33.22 403.69 32.86 405.56 65.35 405.8 65.81 403.45"/>
    <polygon class="st1" points="67.37 395.44 34.78 395.68 34.38 397.71 66.88 397.95 67.37 395.44"/>
    <polygon class="st1" points="103.63 421.09 179.32 421.09 179.8 418.62 104 419.18 103.63 421.09"/>
    <polygon class="st1" points="191.08 421.09 222.74 421.09 223.28 418.3 191.58 418.53 191.08 421.09"/>
    <polygon class="st1" points="64.25 411.47 31.67 411.71 31.34 413.4 63.83 413.64 64.25 411.47"/>
    <polygon class="st1" points="259.17 421.09 292.77 421.09 293.42 417.78 258.22 418.04 259.17 421.09"/>
    <polygon class="st1" points="310.18 409.65 309.06 415.45 340.68 415.69 341.89 409.41 310.18 409.65"/>
    <polygon class="st1" points="153.59 330.76 121.03 331 120.16 335.5 152.62 335.74 153.59 330.76"/>
    <polygon class="st1" points="277.21 336.66 309.15 336.9 310.57 329.6 278.53 329.84 277.21 336.66"/>
    <polygon class="st1" points="187.69 354.52 116.39 355.05 115.62 359.03 186.71 359.56 187.69 354.52"/>
    <polygon class="st1" points="190.64 339.41 151.91 339.41 152.03 338.78 119.48 339.02 118.65 343.35 189.77 343.87 190.64 339.41"/>
    <polygon class="st1" points="186.13 362.54 114.84 363.07 114.1 366.88 185.18 367.4 186.13 362.54"/>
    <polygon class="st1" points="185.51 389.16 142.18 389.16 142.63 386.87 110.19 387.11 109.56 390.41 185.16 390.97 185.51 389.16"/>
    <polygon class="st1" points="145.78 370.84 113.29 371.08 112.59 374.72 144.97 374.96 145.78 370.84"/>
    <polygon class="st1" points="144.21 378.86 111.74 379.1 111.07 382.57 143.43 382.81 144.21 378.86"/>
    <polygon class="st1" points="189.26 346.51 117.93 347.04 117.13 351.19 188.24 351.72 189.26 346.51"/>
    <polygon class="st1" points="210.52 320.46 261.21 320.83 259.23 313.97 211.71 314.32 210.52 320.46"/>
    <polygon class="st1" points="212.04 312.61 258.94 312.96 256.93 305.98 213.26 306.31 212.04 312.61"/>
    <polygon class="st1" points="209.01 328.3 263.49 328.71 261.54 321.96 210.16 322.34 209.01 328.3"/>
    <polygon class="st1" points="213.56 304.77 256.67 305.09 254.62 298 214.81 298.29 213.56 304.77"/>
    <polygon class="st1" points="200.72 298.39 127.23 298.94 126.22 304.12 199.5 304.67 200.72 298.39"/>
    <polygon class="st1" points="156.15 317.53 197.01 317.53 197.61 314.43 124.13 314.97 123.19 319.81 155.67 320.05 156.15 317.53"/>
    <polygon class="st1" points="155.14 322.75 122.58 322.99 121.68 327.66 154.14 327.9 155.14 322.75"/>
    <polygon class="st1" points="199.16 306.41 125.68 306.95 124.71 311.97 197.98 312.51 199.16 306.41"/>
    <polygon class="st1" points="184.46 394.57 108.64 395.13 108.04 398.26 183.64 398.82 184.46 394.57"/>
    <polygon class="st1" points="367.08 392.32 415.19 392.67 416.72 384.85 364.87 385.23 367.08 392.32"/>
    <polygon class="st1" points="182.91 402.59 107.1 403.15 106.53 406.1 182.12 406.66 182.91 402.59"/>
    <polygon class="st1" points="280.25 320.98 312.2 321.21 313.69 313.57 281.64 313.81 280.25 320.98"/>
    <polygon class="st1" points="254.4 297.22 252.31 290.01 216.36 290.27 215.07 296.93 254.4 297.22"/>
    <polygon class="st1" points="310.67 329.06 312.13 321.58 280.09 321.82 278.73 328.82 310.67 329.06"/>
    <path class="st1" d="M429.16,400.76l-1.55,7.71,20.53.15-20.59.15-1.52,7.54,32.18.24-32.28.24-.86,4.3h32.36l19.68-101.17c-1.09-11.73-2.33-24.09-3.38-34.33h-21.43l-23.12,115.04,8.88.07-8.91.07Z"/>
    <polygon class="st1" points="201.02 296.82 202.27 290.38 128.77 290.92 127.74 296.28 201.02 296.82"/>
    <polygon class="st1" points="369.54 400.19 413.67 400.52 415.16 392.86 367.36 393.22 369.54 400.19"/>
    <polygon class="st1" points="327.22 321.47 325.73 329.17 347.43 329.33 325.67 329.49 324.22 337.01 357.48 337.26 324.12 337.5 322.7 344.86 367.56 345.19 322.57 345.52 321.19 352.7 352.85 352.93 353.6 349.09 354.8 352.95 377.64 353.12 354.91 353.29 357.26 360.82 387.71 361.05 357.4 361.27 359.71 368.7 397.78 368.98 359.89 369.26 362.17 376.57 407.86 376.91 362.38 377.24 364.63 384.44 416.72 384.83 436.02 285.6 404.01 285.6 389.5 360.31 367.93 285.6 334.15 285.6 327.25 321.32 337.35 321.4 327.22 321.47"/>
    <polygon class="st1" points="255.73 410.05 257.3 415.07 293.89 415.34 294.98 409.76 255.73 410.05"/>
    <polygon class="st1" points="193.13 410.52 192.34 414.59 223.96 414.83 224.84 410.28 193.13 410.52"/>
    <polygon class="st1" points="105.55 411.16 105.01 413.94 180.6 414.5 181.36 410.6 105.55 411.16"/>
    <polygon class="st1" points="372.34 409.19 374.45 415.94 410.62 416.21 412.04 408.9 372.34 409.19"/>
    <polygon class="st1" points="286.31 289.76 284.82 297.44 307.14 297.61 284.75 297.77 283.3 305.29 315.25 305.52 319.13 285.6 287.12 285.6 286.34 289.6 297.08 289.68 286.31 289.76"/>
    <polygon class="st1" points="281.77 313.13 313.73 313.37 315.25 305.55 283.2 305.79 281.77 313.13"/>
    <polygon class="st1" points="412.14 408.36 413.6 400.88 369.85 401.2 371.99 408.07 412.14 408.36"/>
    <polygon class="st1" points="117.39 291.01 25.29 291.69 24.55 295.52 116.38 296.2 117.39 291.01"/>
    <polygon class="st1" points="227.95 394.25 196.23 394.48 195.37 398.9 227 399.14 227.95 394.25"/>
    <polygon class="st1" points="194.68 402.5 193.86 406.75 225.48 406.98 226.4 402.26 194.68 402.5"/>
    <polygon class="st1" points="229.51 386.23 197.77 386.47 196.89 391.06 228.52 391.29 229.51 386.23"/>
    <polygon class="st1" points="253.24 402.07 254.84 407.2 295.42 407.5 296.54 401.75 253.24 402.07"/>
    <polygon class="st1" points="76.71 347.34 44.12 347.58 43.52 350.65 76.02 350.89 76.71 347.34"/>
    <polygon class="st1" points="275.68 344.51 307.62 344.74 309.01 337.62 276.97 337.85 275.68 344.51"/>
    <polygon class="st1" points="75.15 355.36 42.56 355.6 42 358.49 74.49 358.73 75.15 355.36"/>
    <polygon class="st1" points="73.59 363.37 41 363.61 40.48 366.33 72.97 366.57 73.59 363.37"/>
    <polygon class="st1" points="303.05 368.28 304.33 361.66 240.78 362.14 242.56 367.83 303.05 368.28"/>
    <polygon class="st1" points="232.62 370.2 200.87 370.43 199.92 375.37 231.57 375.6 232.62 370.2"/>
    <polygon class="st1" points="72.04 371.39 39.45 371.63 38.95 374.18 71.45 374.42 72.04 371.39"/>
    <polygon class="st1" points="78.26 339.32 45.67 339.56 45.05 342.8 77.54 343.04 78.26 339.32"/>
    <polygon class="st1" points="240.1 359.96 272.58 360.2 270.77 353.91 238.29 354.15 240.1 359.96"/>
    <polygon class="st1" points="234.17 362.18 202.42 362.42 201.43 367.52 233.09 367.76 234.17 362.18"/>
    <polygon class="st1" points="236.71 349.09 237.65 352.08 270.31 352.32 268.46 345.92 205.52 346.39 204.46 351.84 236.13 352.07 236.71 349.09"/>
    <polygon class="st1" points="235.73 354.17 203.97 354.4 202.95 359.68 234.61 359.92 235.73 354.17"/>
    <polygon class="st1" points="231.06 378.22 199.32 378.45 198.4 383.21 230.05 383.45 231.06 378.22"/>
    <polygon class="st1" points="315.12 384.08 346.76 384.31 348.11 377.35 316.38 377.58 315.12 384.08"/>
    <polygon class="st1" points="316.64 376.23 348.29 376.47 349.67 369.33 317.93 369.57 316.64 376.23"/>
    <polygon class="st1" points="312.09 399.77 343.72 400 345 393.38 313.28 393.62 312.09 399.77"/>
    <polygon class="st1" points="313.61 391.92 345.24 392.16 346.56 385.37 314.83 385.6 313.61 391.92"/>
    <polygon class="st1" points="318.15 368.39 349.81 368.62 351.22 361.32 319.48 361.55 318.15 368.39"/>
    <polygon class="st1" points="351.33 360.78 352.78 353.3 321.02 353.54 319.67 360.54 351.33 360.78"/>
    <polygon class="st1" points="274.16 352.35 306.1 352.59 307.45 345.63 275.42 345.87 274.16 352.35"/>
    <polygon class="st1" points="272.64 360.2 304.57 360.43 305.89 353.65 273.86 353.89 272.64 360.2"/>
    <polygon class="st1" points="81.37 323.29 48.79 323.53 48.09 327.11 80.59 327.35 81.37 323.29"/>
    <polygon class="st1" points="79.82 331.31 47.23 331.55 46.57 334.96 79.06 335.2 79.82 331.31"/>
    <polygon class="st1" points="310.58 407.61 342.2 407.84 343.45 401.4 311.73 401.63 310.58 407.61"/>
    <polygon class="st1" points="82.19 319.08 111.9 319.08 112.69 315.06 20.59 315.74 19.95 319.05 24.68 319.08 49.65 319.08 49.62 319.27 82.11 319.51 82.19 319.08"/>
    <polygon class="st1" points="265.76 336.58 263.85 329.95 208.61 330.36 207.49 336.15 265.76 336.58"/>
    <polygon class="st1" points="245.02 375.7 301.52 376.12 302.77 369.68 243.27 370.12 245.02 375.7"/>
    <polygon class="st1" points="114.26 307.04 22.16 307.72 21.48 311.2 113.31 311.88 114.26 307.04"/>
    <polygon class="st1" points="115.82 299.02 23.73 299.7 23.01 303.36 114.84 304.04 115.82 299.02"/>
  </g>
  <g>
    <path class="st1" d="M195.41,208.14l-68.08.86-1,5.19,61.42.78c2.88-1.92,5.43-4.23,7.67-6.83Z"/>
    <path class="st1" d="M151.67,222.37l.12-.62c1.18.16,3.98.48,5.6.48l.05.21,29.26.37-1.63-6.22c.19-.1.36-.22.54-.33l-59.84.76-.97,5,26.86.34Z"/>
    <polygon class="st1" points="230.22 231.71 203.19 232.05 201.9 238.72 255.23 239.4 201.64 240.08 200.39 246.56 261.11 247.33 200.09 248.1 198.87 254.39 261.75 255.19 265.98 233.35 229.9 233.35 230.22 231.71"/>
    <polygon class="st1" points="114.11 206.18 113.81 201.17 87.09 201.51 87.26 205.84 114.11 206.18"/>
    <polygon class="st1" points="114.58 214.04 114.29 209.17 87.41 209.51 87.58 213.7 114.58 214.04"/>
    <polygon class="st1" points="159.9 232.6 161.25 238.2 190.82 238.58 189.16 232.23 159.9 232.6"/>
    <polygon class="st1" points="192.88 246.46 191.25 240.21 161.83 240.58 163.16 246.08 192.88 246.46"/>
    <polygon class="st1" points="203.41 230.88 230.32 231.22 231.8 223.68 204.74 224.03 203.41 230.88"/>
    <polygon class="st1" points="159.35 230.32 188.76 230.7 187.07 224.25 157.97 224.62 159.35 230.32"/>
    <polygon class="st1" points="194.94 254.34 193.33 248.19 163.76 248.56 165.07 253.96 194.94 254.34"/>
    <polygon class="st1" points="113.64 198.32 113.33 193.17 86.76 193.51 86.94 197.98 113.64 198.32"/>
    <path class="st1" d="M196.2,207.22c1.79-2.2,3.34-4.61,4.68-7.16l-72,.91-1.04,5.38,68.36.87Z"/>
    <polygon class="st1" points="166.52 259.95 196.41 259.95 195.42 256.17 165.69 256.54 166.52 259.95"/>
    <polygon class="st1" points="89.36 259.95 117.34 259.95 117.17 257.16 89.26 257.51 89.36 259.95"/>
    <polygon class="st1" points="86.63 190.12 113.17 190.46 112.85 185.17 86.44 185.51 86.63 190.12"/>
    <path class="st1" d="M275.55,173.72l3.01-15.54c-30.89,2.96-54.33,6.94-62.74,8.46l-3.33,17.22,1.66.02-1.67.02-1.51,7.79,9.05.11-9.09.12-1.47,7.61,16.43.21-16.51.21-1.43,7.42,23.81.3-23.93.3-1.4,7.23,31.19.4-31.34.4-1.36,7.04,26.93.34,1.43-7.28h32.25l4.71-24.17h-32.25l3.53-18.21h34.01Z"/>
    <polygon class="st1" points="52.04 257.99 23.13 258.35 22.41 259.95 51.22 259.95 52.04 257.99"/>
    <polygon class="st1" points="157.81 191.03 159.07 184.59 131.97 184.93 130.86 190.68 157.81 191.03"/>
    <path class="st1" d="M177.63,184.35c-.58,2.5-1.67,4.9-3.36,6.89l30.06.38c.76-2.48,1.33-5.03,1.73-7.63l-28.43.36Z"/>
    <polygon class="st1" points="150.16 230.21 151.22 224.71 124.22 225.05 123.29 229.87 150.16 230.21"/>
    <polygon class="st1" points="133.52 176.91 132.38 182.85 159.34 183.19 160.64 176.56 133.52 176.91"/>
    <path class="st1" d="M173.15,192.41c-2.42,2.24-5.79,3.71-10.31,3.71-3.39,0-3.68-.16-5.89-.64l.56-2.87-27.08.34-1.08,5.57,71.87.91c1.19-2.36,2.17-4.85,2.98-7.42l-31.06.39Z"/>
    <polygon class="st1" points="80.86 190.05 82.76 185.55 55.75 185.9 54.04 189.71 80.86 190.05"/>
    <polygon class="st1" points="70.97 213.49 72.57 209.7 44.88 210.05 43.49 213.14 70.97 213.49"/>
    <polygon class="st1" points="74.27 205.68 75.97 201.65 48.5 202 47 205.33 74.27 205.68"/>
    <polygon class="st1" points="77.57 197.86 79.36 193.6 52.13 193.95 50.52 197.52 77.57 197.86"/>
    <polygon class="st1" points="84.16 182.23 86.12 177.59 86.31 182.26 112.69 182.6 112.37 177.17 59.38 177.85 57.55 181.9 84.16 182.23"/>
    <polygon class="st1" points="115.05 221.9 114.77 217.17 87.73 217.51 87.74 217.72 71.13 217.72 41.25 218.1 39.97 220.95 115.05 221.9"/>
    <polygon class="st1" points="112.22 174.74 111.89 169.18 63 169.8 61.07 174.09 112.22 174.74"/>
    <polygon class="st1" points="57.59 244.74 58.58 242.38 88.62 242.38 88.74 245.14 116.47 245.49 116.21 241.16 30.38 242.25 29.42 244.38 57.59 244.74"/>
    <polygon class="st1" points="54.32 252.56 55.42 249.94 26.75 250.3 25.9 252.19 54.32 252.56"/>
    <polygon class="st1" points="116 237.63 115.73 233.16 34 234.2 32.93 236.57 116 237.63"/>
    <polygon class="st1" points="115.53 229.77 115.25 225.16 37.63 226.15 36.45 228.76 115.53 229.77"/>
    <path class="st1" d="M177.51,176.35c.43.98.64,2.15.64,3.5,0,1.18-.12,2.38-.33,3.58l28.27.36c.38-2.57.59-5.18.61-7.81l-29.19.37Z"/>
    <polygon class="st1" points="145.03 256.81 118.02 257.15 117.48 259.95 144.43 259.95 145.03 256.81"/>
    <polygon class="st1" points="89.07 253 116.94 253.35 116.69 249.16 88.92 249.51 89.07 253"/>
    <polygon class="st1" points="147.14 245.88 148.13 240.76 121.12 241.1 120.27 245.54 147.14 245.88"/>
    <polygon class="st1" points="145.63 253.72 146.58 248.78 119.57 249.12 118.75 253.37 145.63 253.72"/>
    <polygon class="st1" points="261.72 255.32 198.54 256.13 197.8 259.95 260.82 259.95 261.72 255.32"/>
    <polygon class="st1" points="110.81 151.15 110.56 147.13 73.21 147.13 71.62 150.65 110.81 151.15"/>
    <polygon class="st1" points="111.75 166.87 111.41 161.18 66.63 161.75 64.59 166.28 111.75 166.87"/>
    <polygon class="st1" points="111.28 159.01 110.93 153.18 70.25 153.7 68.11 158.46 111.28 159.01"/>
    <path class="st1" d="M172.85,147.13h-33.57l-.84,4.37,52.26.66-52.52.67-1.26,6.51,59.65.76-59.94.76-1.22,6.32,67.03.85-67.36.86-1.18,6.13,26.99.34.63-3.24h6.48c4.67,0,7.65,1.1,9.11,3.45l29.61.38c0-.15.01-.29.01-.44,0-19.18-13.69-28.37-33.87-28.37Z"/>
    <polygon class="st1" points="148.65 238.04 149.67 232.73 122.67 233.08 121.78 237.7 148.65 238.04"/>
  </g>
</svg>