<?xml version="1.0" encoding="UTF-8"?>
<svg id="Calque_1" xmlns="http://www.w3.org/2000/svg" version="1.1" viewBox="0 0 415.48 336">
  <!-- Generator: Adobe Illustrator 30.2.1, SVG Export Plug-In . SVG Version: 2.1.1 Build 1)  -->
  <defs>
    <style>
      .st0 {
        fill: #ffff31;
      }
    </style>
  </defs>
  <path class="st0" d="M80.13,3.22l-.25.02s-.07-.04-.11-.05c.12,0,.24.02.36.03Z"/>
  <path class="st0" d="M160.56,15.29l-48.25,3.77c-3.76-1.96-7.36-3.8-10.73-5.5l33.41-3.24c8.51,1.49,17.05,3.16,25.57,4.97Z"/>
  <path class="st0" d="M126.02,8.81l-29.35,2.29c-4.19-2.07-7.95-3.88-11.15-5.36l10.51-1.02c9.85,1.08,19.88,2.46,29.99,4.09Z"/>
  <path class="st0" d="M332.03,319.42c-.44,1.29-.87,2.54-1.3,3.76l-5.88.46c-.02-1.17-.05-2.34-.08-3.52l7.26-.7Z"/>
  <path class="st0" d="M328.48,329.14c-.49,1.22-.97,2.4-1.46,3.51l-2,.15c-.01-1.1-.03-2.21-.05-3.32l3.51-.34Z"/>
  <path class="st0" d="M359.98,115.92c.33.88.62,1.9.89,3.03l-304.83,23.79c3.34-1.29,6.73-2.57,10.17-3.85l302.04-29.28c-2.6,2.05-5.35,4.15-8.27,6.31Z"/>
  <path class="st0" d="M222.41,198.76c-3.18,1.72-6.39,3.44-9.66,5.17l-39.21,3.06c1.09-1.28,2.17-2.54,3.23-3.8l45.64-4.43Z"/>
  <path class="st0" d="M355.28,214.02c-.32,2.12-.65,4.25-.99,6.38l-37.6,2.93c-.31-1.84-.63-3.67-.96-5.48l39.55-3.83Z"/>
  <path class="st0" d="M242.92,187.4c-3.52,1.99-6.95,3.91-10.36,5.8l-50.79,3.97c1.16-1.41,2.29-2.8,3.4-4.17l57.75-5.6Z"/>
  <path class="st0" d="M153.78,233.55c-1.99.97-4.03,1.96-6.11,2.98l-1.39.1c.86-.86,1.71-1.73,2.56-2.6l4.94-.48Z"/>
  <path class="st0" d="M177.61,221.86c-2.46,1.22-4.99,2.47-7.6,3.75l-14.16,1.11c.95-1.01,1.88-2.02,2.82-3.02l18.94-1.84Z"/>
  <path class="st0" d="M200.62,210.25c-2.84,1.46-5.77,2.95-8.79,4.49l-26.92,2.1c1.03-1.15,2.04-2.29,3.04-3.42l32.67-3.17Z"/>
  <path class="st0" d="M361.74,157.12c-.16,2.5-.35,5.06-.56,7.69l-59.48,4.64c-1.01-2.16-2.05-4.23-3.13-6.2l63.17-6.13Z"/>
  <path class="st0" d="M362.23,147.7c-.1,2.53-.23,5.16-.39,7.88l-64.77,5.06c-.72-1.2-1.45-2.35-2.2-3.46-2.44,1.44-4.81,2.83-7.11,4.19l-83.33,6.5c1.32-1.82,2.57-3.56,3.77-5.24l154.03-14.93Z"/>
  <path class="st0" d="M359.11,185.51c-.27,2.33-.55,4.68-.85,7.06l-47.27,3.69c-.53-2.02-1.08-3.99-1.65-5.93l49.77-4.82Z"/>
  <path class="st0" d="M362.42,138.3c0,2.56-.05,5.24-.14,8.07l-150.93,11.78c1.4-2,2.68-3.87,3.84-5.57l147.23-14.28Z"/>
  <path class="st0" d="M360.14,176.03c-.24,2.39-.5,4.82-.78,7.28l-50.94,3.97c-.64-2.06-1.3-4.08-1.99-6.04l53.71-5.21Z"/>
  <path class="st0" d="M357.95,195c-.29,2.26-.6,4.54-.91,6.84l-43.87,3.42c-.44-1.95-.89-3.89-1.36-5.79l46.14-4.47Z"/>
  <path class="st0" d="M356.67,204.5c-.31,2.2-.63,4.4-.96,6.62l-40.65,3.17c-.37-1.9-.75-3.78-1.15-5.64l42.76-4.15Z"/>
  <path class="st0" d="M262.55,176.12c-3.86,2.24-7.56,4.38-11.14,6.44l-61.76,4.82c1.21-1.54,2.39-3.05,3.54-4.54l69.36-6.72Z"/>
  <path class="st0" d="M281.78,164.88c-4.23,2.48-8.24,4.83-12.08,7.07l-72.51,5.66c1.27-1.67,2.49-3.3,3.67-4.89l80.92-7.84Z"/>
  <path class="st0" d="M280.79,51.79l-96.53,7.53c-3.24-1.96-6.56-3.94-9.93-5.93l88.61-8.59c6.15,2.29,12.11,4.62,17.85,6.99Z"/>
  <path class="st0" d="M342.6,280.89c-.37,1.6-.75,3.18-1.12,4.75l-18.06,1.4c-.08-1.42-.17-2.84-.26-4.27l19.44-1.88Z"/>
  <path class="st0" d="M335.07,309.75c-.41,1.36-.81,2.71-1.22,4.01l-9.23.72c-.04-1.23-.08-2.47-.12-3.71l10.57-1.02Z"/>
  <path class="st0" d="M261.18,44.15l-90.56,7.06c-3.35-1.95-6.74-3.91-10.14-5.85l81.61-7.91c6.52,2.17,12.9,4.41,19.09,6.7Z"/>
  <path class="st0" d="M344.76,271.3c-.37,1.68-.73,3.34-1.11,4.99l-20.81,1.62c-.1-1.48-.21-2.97-.32-4.45l22.24-2.16Z"/>
  <path class="st0" d="M314.64,67.5l-104.68,8.17c-2.89-1.96-5.97-3.99-9.22-6.08l98.81-9.58c5.31,2.48,10.36,4.98,15.09,7.49Z"/>
  <path class="st0" d="M298.62,59.58l-101.18,7.89c-3.11-1.96-6.33-3.97-9.66-6.01l94.3-9.14c5.75,2.39,11.27,4.81,16.54,7.26Z"/>
  <path class="st0" d="M216.08,29.31l-73.91,5.77c-3.51-1.94-6.99-3.84-10.41-5.69l62.64-6.08c7.32,1.91,14.55,3.92,21.68,6Z"/>
  <path class="st0" d="M189.97,22.17l-62.54,4.88c-3.61-1.93-7.13-3.8-10.54-5.6l49.8-4.83c7.81,1.74,15.58,3.59,23.28,5.55Z"/>
  <path class="st0" d="M337.8,300.11c-.39,1.44-.78,2.86-1.18,4.26l-12.32.96c-.05-1.3-.1-2.6-.16-3.9l13.66-1.32Z"/>
  <path class="st0" d="M239.67,36.65l-83.1,6.48c-3.43-1.94-6.87-3.87-10.29-5.77l73.06-7.09c6.9,2.06,13.69,4.19,20.33,6.38Z"/>
  <path class="st0" d="M340.29,290.49c-.38,1.52-.76,3.02-1.15,4.5l-15.23,1.19c-.07-1.36-.14-2.72-.21-4.08l16.59-1.61Z"/>
  <path class="st0" d="M24.83,161.65c-5.31,1-10.5,2.03-15.55,3.1l-3.47.27c1.19-.62,2.39-1.25,3.61-1.87l15.41-1.5Z"/>
  <path class="st0" d="M352.19,233.07c-.34,1.98-.68,3.96-1.04,5.93l-31.8,2.48c-.22-1.73-.45-3.45-.68-5.16l33.52-3.25Z"/>
  <path class="st0" d="M353.79,223.54c-.34,2.05-.67,4.1-1.02,6.16l-34.66,2.7c-.26-1.79-.53-3.56-.81-5.32l36.49-3.54Z"/>
  <path class="st0" d="M346.79,261.73c-.36,1.75-.73,3.49-1.09,5.22l-23.55,1.84c-.12-1.55-.25-3.09-.39-4.63l25.03-2.43Z"/>
  <path class="st0" d="M362.42,137.19l-144.46,11.27c1.7-2.56,2.98-4.55,3.84-5.9l140.36-13.61c.15,2.52.24,5.27.26,8.24Z"/>
  <path class="st0" d="M362.09,128.03L28.64,154.06c2.08-.92,4.2-1.85,6.36-2.77l326.02-31.6c.49,2.34.84,5.14,1.07,8.34Z"/>
  <path class="st0" d="M348.7,252.17c-.36,1.83-.72,3.64-1.08,5.46l-26.27,2.05c-.15-1.61-.31-3.22-.47-4.82l27.82-2.69Z"/>
  <path class="st0" d="M361.03,166.57c-.21,2.45-.44,4.94-.69,7.48l-54.96,4.29c-.79-2.11-1.6-4.16-2.45-6.14l58.1-5.63Z"/>
  <path class="st0" d="M350.5,242.62c-.35,1.9-.7,3.8-1.06,5.69l-29.02,2.26c-.18-1.67-.37-3.33-.57-4.98l30.65-2.97Z"/>
  <path class="st0" d="M407.6,64.7c-5.41,12.79-16.16,26.56-38.78,44.46l-280.65,21.9c5.14-1.76,10.33-3.49,15.55-5.18l275.49-26.71-253.31,19.77c8.05-2.42,16.07-4.74,23.99-6.92l218.71-21.2-196.37,15.33c17.47-4.37,33.87-7.91,48.11-10.33l137.66-13.35-126.95,9.91c-1.63-1.83-3.95-3.95-6.86-6.31l123.2-11.95-125.89,9.83c-2.51-1.94-5.36-4.01-8.48-6.18l102.28-9.91c4.36,2.32,8.45,4.64,12.24,6.96,31.67-8.91,68.92-11.31,80.06-10.12Z"/>
</svg>